.
..............................Site Info...........................

 -   http://www.scenetime.com  *_*   

Good news ! SceneTime will open sign up on Easter day for one day . Its a good chance to get on on Easter day .

Scenetime .Always on time . friendly online private torrent community ..

     We care to share . Join us on  http://www.scenetime.com 

    Be the first to get new release at  http://www.scenetime.com

        Seed back for speed


...................................NFO:.................................................[img]http://i.imgur.com/vJbae.jpg[/img]

[b]Freeway.Killer.2010.BRRip.XViD.AC3-ADTRG[/b]

The true story of William Bonin a California serial killer. 

[url]http://www.imdb.com/title/tt1410020/[/url]

Source -   Freeway Killer 2010.BDRip.720P.XVID.AC3.ADTRG  Thanks Bro

Complete name                            : Freeway.Killer.2010.BRRip.XViD.AC3-ADTRG.avi
Format                                   : AVI
Format/Info                              : Audio Video Interleave
File size                                : 1.40 GiB
Duration                                 : 1h 23mn
Overall bit rate                         : 2 390 Kbps
Writing library                          : VirtualDub build 32842/release

Video
ID                                       : 0
Format                                   : MPEG-4 Visual
Codec ID                                 : XVID
Duration                                 : 1h 23mn
Bit rate                                 : 1 997 Kbps
Width                                    : 720 pixels
Height                                   : 400 pixels
Display aspect ratio                     : 16:9
Frame rate                               : 23.976 fps
Stream size                              : 1.17 GiB (84%)

Audio
ID                                       : 1
Format                                   : AC-3
Bit rate                                 : 384 Kbps
Channel(s)                               : 6 channels
Channel positions                        : Front: L C R, Side: L R, LFE
Sampling rate                            : 48.0 KHz
Stream size                              : 230 MiB (16%)



Encoder - LiMeY
Good things come in small packages, So feel the wrath of my compression


[img]http://i.imgur.com/q6s4q.jpg[/img]




Dont fear the Atomic Dragon, Embrace it :)

[img]http://i.imgur.com/2739o.gif?1?8830[/img]


Greetz to DragonMaster,cOOkies,Mr Geek,AnimeKing,Cush,NoWoRRiEs, DBratt, Rayne, Mr & Mrs IrNbRu and the rest of the crew

Respect to CM8,Goon,Hope,mSD,InfernO,legend-rg and maybe a few more ;)